<svg id="Capa_1" data-name="Capa 1" xmlns="http://www.w3.org/2000/svg" viewBox="0 0 208.94 93.25"><defs><style>.cls-1{fill:none;stroke:#000;stroke-miterlimit:10;}.cls-2{font-size:40px;font-family:ArialRoundedMTBold, Arial Rounded MT Bold;}.cls-3{letter-spacing:-0.04em;}</style></defs><title>logo dubai</title><path class="cls-1" d="M84.66,125l0,88.6H80.86a17,17,0,0,0-5.36,3.65h53s-2.79-3.33-5.68-3.33l-5.79-.1a107.68,107.68,0,0,0,1.5-19.82,95.1,95.1,0,0,0-2.46-19.5A50.19,50.19,0,0,0,107,154.81c-4.91-6.35-6.77-7.17-15.75-14.24a67.78,67.78,0,0,0-6-3.75l0-11.78Z" transform="translate(-74.42 -124.54)"/><line class="cls-1" x1="10.3" y1="89.11" x2="42.65" y2="89.32"/><path class="cls-1" d="M88,142.29l3.69,71.35h22.34s1.82-7.55,1.29-19.66a94.2,94.2,0,0,0-2.63-19.5s-2-10.87-9.43-19.39A61.75,61.75,0,0,0,88,142.29Z" transform="translate(-74.42 -124.54)"/><polyline class="cls-1" points="17.88 88.81 40.09 69.25 17.06 69.21 38.31 49.95 37.8 49.95 15.91 49.95 28.64 30.28 14.5 30.28 38.73 30.28 41.04 30.28"/><line class="cls-1" x1="34.91" y1="34.48" x2="39.61" y2="30.28"/><line class="cls-1" x1="13.62" y1="19.5" x2="16.15" y2="19.32"/><line class="cls-1" x1="13.85" y1="22.19" x2="20.1" y2="22.19"/><line class="cls-1" x1="14.42" y1="33.29" x2="31.03" y2="33.29"/><line class="cls-1" x1="17.17" y1="86.4" x2="40.15" y2="86.4"/><line class="cls-1" x1="17.03" y1="83.71" x2="40.15" y2="83.71"/><line class="cls-1" x1="17.03" y1="80.9" x2="40.5" y2="80.9"/><line class="cls-1" x1="16.75" y1="78.2" x2="40.74" y2="78.2"/><line class="cls-1" x1="16.6" y1="75.32" x2="40.74" y2="75.32"/><line class="cls-1" x1="16.6" y1="72.46" x2="40.74" y2="72.46"/><line class="cls-1" x1="16.16" y1="66.84" x2="40.74" y2="66.84"/><line class="cls-1" x1="16.02" y1="64.06" x2="40.09" y2="64.06"/><line class="cls-1" x1="13.99" y1="25.05" x2="22.73" y2="25.05"/><line class="cls-1" x1="14.42" y1="27.82" x2="26.19" y2="27.82"/><line class="cls-1" x1="14.56" y1="36.03" x2="32.3" y2="36.03"/><line class="cls-1" x1="14.72" y1="38.96" x2="34.41" y2="38.96"/><line class="cls-1" x1="14.85" y1="41.64" x2="35.39" y2="41.64"/><line class="cls-1" x1="15" y1="44.46" x2="36.61" y2="44.1"/><line class="cls-1" x1="15.15" y1="47.31" x2="37.4" y2="47.31"/><line class="cls-1" x1="15.43" y1="52.81" x2="38.98" y2="52.81"/><line class="cls-1" x1="15.83" y1="55.63" x2="39.51" y2="55.63"/><line class="cls-1" x1="16.02" y1="61.13" x2="40.09" y2="61.13"/><line class="cls-1" x1="39.51" y1="58.56" x2="16.16" y2="58.56"/><line class="cls-1" x1="31.46" y1="36.03" x2="32.81" y2="36.03"/><line class="cls-1" x1="21.76" y1="25.05" x2="23.43" y2="25.05"/><line class="cls-1" x1="38.57" y1="49.96" x2="41.69" y2="49.72"/><line class="cls-1" x1="40.09" y1="69.25" x2="43.95" y2="69.25"/><text class="cls-2" transform="translate(50.15 70.56)">DU<tspan class="cls-3" x="60" y="0">B</tspan><tspan x="87.25" y="0">AI</tspan></text></svg>